# xmcd
#
# Track frame offsets:
#	150
#	17210
#	36035
#	53195
#	70694
#	88604
#	105546
#	125396
#	140582
#	171665
#	187882
#	203835
#	217122
#	229230
#	245768
#	262020
#	284925
#	298265
#	308701
#
# Disc length: 4297
#
# Revision: 2
# Processed by: cddbd v1.5.1PL0 Copyright (c) Steve Scherf et al.
# Submitted via: dBpowerAMP V4.0
# Normalized: r0:TRMNUM;r1:DSETVAR2,TDELIM( - )
#
DISCID=3110c713
DTITLE=Various Artist - As preferidas dos caminhoneiros vol. 1
DYEAR=1900
DGENRE=Sertaneja
TTITLE0=Todas as manhãs - Sérgio Reis and Zezé di Camargo
TTITLE1=Caminhoneiro do amor - Sula Miranda
TTITLE2=Rédeas do possante - Zezé di Camargo and Luciano
TTITLE3=Cowboy do asfalto - Chitãozinho and Xororó
TTITLE4=Rumo à goiania - Leandro and Leonardo
TTITLE5=Viajante solitário - Cezar and Paulinho
TTITLE6=Voando sem asas - Zezé di Camargo and Luciano
TTITLE7=Caminhão é assim... - João Mineiro and Marciano
TTITLE8=Caminhoneiro - Roberto Carlos
TTITLE9=Sonho de um caminhoneiro - Milionário and José Rico
TTITLE10=Destino de um caminhoneiro - Cezar e Paulinho
TTITLE11=Carreta feiticeira - As Marcianas
TTITLE12=Chofer da estrada - Biá and Dino Franco
TTITLE13=Ela chora chora - Chitãozinho and chororó
TTITLE14=A piquitita - Duduca and Dalvan
TTITLE15=O velho caminhoneiro - Roberto Carlos
TTITLE16=Com o pé na estrada - Sula Miranda
TTITLE17=Trovão azul - Trio Parada Dura
TTITLE18=Amante da estrada - Milionário and José Rico
EXTD=
EXTT0=
EXTT1=
EXTT2=
EXTT3=
EXTT4=
EXTT5=
EXTT6=
EXTT7=
EXTT8=
EXTT9=
EXTT10=
EXTT11=
EXTT12=
EXTT13=
EXTT14=
EXTT15=
EXTT16=
EXTT17=
EXTT18=
PLAYORDER=
